<svg viewBox="0 0 1440 525" xmlns="http://www.w3.org/2000/svg" xmlns:xlink="http://www.w3.org/1999/xlink"><defs><path id="a" d="M0 0h1440v523.8H0z"/></defs><g transform="translate(0 .68)" fill="none" fill-rule="evenodd"><mask id="b" fill="#fff"><use xlink:href="#a"/></mask><use fill="#D8D8D8" xlink:href="#a"/><g fill-rule="nonzero" mask="url(#b)" stroke-width="1.51"><path fill="#9E6F62" stroke="#9E6F62" d="M1461.65-200.177L1306.45-10.61l185.8 69.72z"/><path fill="#C98D6D" stroke="#C98D6D" d="M1463.65 256.01l-105.1 207.92 128.6-59.93z"/><path fill="#D49571" stroke="#D49571" d="M1487.15 404l-128.6 59.93 128.6 127.19z"/><path fill="#AB7A66" stroke="#AB7A66" d="M1306.45-10.61l55.1 184.68 130.7-114.96z"/><path fill="#B37D68" stroke="#B37D68" d="M1361.55 174.07l102.1 81.94 28.6-196.9z"/><path fill="#DE9D74" stroke="#DE9D74" d="M1358.55 463.93l19.4 200.58 109.2-73.39z"/><path fill="#C1896D" stroke="#C1896D" d="M1361.55 174.07l-3 289.86 105.1-207.92z"/><path fill="#C99471" stroke="#C99471" d="M1185.05 427.24l173.5 36.69 3-289.86z"/><path fill="#C29171" stroke="#C29171" d="M1163.55 220.55l21.5 206.69 176.5-253.17z"/><path fill="#DCA478" stroke="#DCA478" d="M1185.05 427.24l-16.4 240.94 189.9-204.25z"/><path fill="#AC7F69" stroke="#AC7F69" d="M1306.45-10.61l-87.8 47.7 142.9 136.98z"/><path fill="#E3A678" stroke="#E3A678" d="M1358.55 463.93l-189.9 204.25 209.3-3.67z"/><path fill="#B4876C" stroke="#B4876C" d="M1218.65 37.09l-55.1 183.46 198-46.48z"/><path fill="#A37B68" stroke="#A37B68" d="M1209.55-104.781l9.1 141.871 87.8-47.7z"/><path fill="#CB9C76" stroke="#CB9C76" d="M1163.55 220.55l-76.5 158.99 98 47.7z"/><path fill="#E4AF7D" stroke="#E4AF7D" d="M1075.75 662.06l92.9 6.12 16.4-240.94z"/><path fill="#A47F6A" stroke="#A47F6A" d="M1209.55-104.781L1072.75-3.27l145.9 40.36z"/><path fill="#B0886E" stroke="#B0886E" d="M1072.75-3.27l90.8 223.82 55.1-183.46z"/><path fill="#C59975" stroke="#C59975" d="M1084.95 251.12l2.1 128.42 76.5-158.99z"/><path fill="#DBA97B" stroke="#DBA97B" d="M1087.05 379.54l-11.3 282.52 109.3-234.82z"/><path fill="#B89171" stroke="#B89171" d="M1072.75-3.27l12.2 254.39 78.6-30.57z"/><path fill="#E1B27F" stroke="#E1B27F" d="M950.25 561.77l125.5 100.29 11.3-282.52z"/><path fill="#B29071" stroke="#B29071" d="M1072.75-3.27l-140.9 8.56 153.1 245.83z"/><path fill="#BC9A76" stroke="#BC9A76" d="M931.85 5.29l-16.3 260.51 169.4-14.68z"/><path fill="#D7AD7E" stroke="#D7AD7E" d="M898.15 355.08l52.1 206.69 136.8-182.23z"/><path fill="#C8A078" stroke="#C8A078" d="M1084.95 251.12l-169.4 14.68 171.5 113.74z"/><path fill="#CCA77B" stroke="#CCA77B" d="M915.55 265.8l-17.4 89.28 188.9 24.46z"/><path fill="#A78B70" stroke="#A78B70" d="M910.45-79.1l21.4 84.39 140.9-8.56z"/><path fill="#BDA27A" stroke="#BDA27A" d="M738.95-15.5l20.4 313.1 156.2-31.8z"/><path fill="#B49A77" stroke="#B49A77" d="M738.95-15.5l176.6 281.3 16.3-260.51z"/><path fill="#DBB681" stroke="#DBB681" d="M898.15 355.08l-143.9 103.96 196 102.73z"/><path fill="#E4BE85" stroke="#E4BE85" d="M754.25 459.04l1 129.64 195-26.91z"/><path fill="#A89273" stroke="#A89273" d="M910.45-79.1l-171.5 63.6 192.9 20.79z"/><path fill="#CBAB7D" stroke="#CBAB7D" d="M759.35 297.6l138.8 57.48 17.4-89.28z"/><path fill="#D0B080" stroke="#D0B080" d="M759.35 297.6l-5.1 161.44 143.9-103.96z"/><path fill="#A79274" stroke="#A79274" d="M627.65-.82l-1 276.4L738.95-15.5z"/><path fill="#B59D78" stroke="#B59D78" d="M738.95-15.5l-112.3 291.08 132.7 22.02z"/><path fill="#CBAC7E" stroke="#CBAC7E" d="M627.65 410.12l126.6 48.92 5.1-161.44z"/><path fill="#D9B782" stroke="#D9B782" d="M754.25 459.04l-134.77 85.61 135.77 44.03z"/><path fill="#C1A57B" stroke="#C1A57B" d="M626.65 275.58l1 134.54 131.7-112.52z"/><path fill="#CFAF80" stroke="#CFAF80" d="M627.65 410.12l-8.17 134.53 134.77-85.61z"/><path fill="#A69274" stroke="#A69274" d="M484.74 171.62l141.91 103.96 1-276.4z"/><path fill="#BBA17A" stroke="#BBA17A" d="M626.65 275.58L487.8 366.09l139.85 44.03z"/><path fill="#C4A87C" stroke="#C4A87C" d="M487.8 366.09l131.68 178.56 8.17-134.53z"/><path fill="#9B8971" stroke="#9B8971" d="M421.45 112.92l63.29 58.7L627.65-.82z"/><path fill="#8E7F6D" stroke="#8E7F6D" d="M395.93-143.918l25.52 256.838L627.65-.82z"/><path fill="#AF9876" stroke="#AF9876" d="M484.74 171.62l3.06 194.47 138.85-90.51z"/><path fill="#C7A97D" stroke="#C7A97D" d="M487.8 366.09l-78.6 293.52 210.28-114.96z"/><path fill="#83786A" stroke="#83786A" d="M395.93-143.918L269.35-11.83l152.1 124.75z"/><path fill="#9B8A71" stroke="#9B8A71" d="M421.45 112.92l-91.87 139.42 155.16-80.72z"/><path fill="#B89E79" stroke="#B89E79" d="M307.12 375.87L409.2 659.61l78.6-293.52z"/><path fill="#A59174" stroke="#A59174" d="M484.74 171.62l-155.16 80.72L487.8 366.09z"/><path fill="#A79275" stroke="#A79275" d="M329.58 252.34l-22.46 123.53 180.68-9.78z"/><path fill="#BBA17A" stroke="#BBA17A" d="M307.12 375.87l-38.79 273.96 140.87 9.78z"/><path fill="#8F816D" stroke="#8F816D" d="M269.35-11.83l60.23 264.17 91.87-139.42z"/><path fill="#B09977" stroke="#B09977" d="M152.98 545.87l115.35 103.96 38.79-273.96z"/><path fill="#867A6B" stroke="#867A6B" d="M269.35-11.83L111.13 97.02l218.45 155.32z"/><path fill="#8C7E6C" stroke="#8C7E6C" d="M111.13 97.02l9.19 201.8 209.26-46.48z"/><path fill="#9B8970" stroke="#9B8970" d="M120.32 298.82l186.8 77.05 22.46-123.53z"/><path fill="#A28F73" stroke="#A28F73" d="M100.92 381.99l52.06 163.88 154.14-170z"/><path fill="#998770" stroke="#998770" d="M120.32 298.82l-19.4 83.17 206.2-6.12z"/><path fill="#726C65" stroke="#726C65" d="M85.61-119.457L111.13 97.02 269.35-11.83z"/><path fill="#696562" stroke="#696562" d="M85.61-119.457L-28.72-68.09 111.13 97.02z"/><path fill="#7E7568" stroke="#7E7568" d="M111.13 97.02L-.14 114.14l120.46 184.68z"/><path fill="#9F8D72" stroke="#9F8D72" d="M100.92 381.99L-25.66 564.22l178.64-18.35z"/><path fill="#97866F" stroke="#97866F" d="M-72.61 466.38l46.95 97.84 126.58-182.23z"/><path fill="#6E6964" stroke="#6E6964" d="M-28.72-68.09L-.14 114.14l111.27-17.12z"/><path fill="#887C6B" stroke="#887C6B" d="M-59.34 192.42l160.26 189.57 19.4-83.17z"/><path fill="#7D7368" stroke="#7D7368" d="M-.14 114.14l-59.2 78.28 179.66 106.4z"/><path fill="#897C6C" stroke="#897C6C" d="M-59.34 192.42l-13.27 273.96 173.53-84.39z"/></g></g></svg>