<svg xmlns="http://www.w3.org/2000/svg" width="35" height="35"><g fill="none"><path fill="#E86C60" d="M33.478 0H1.522C.682 0 0 .681 0 1.522v31.956C0 34.318.681 35 1.522 35h31.956c.84 0 1.522-.681 1.522-1.522V1.522C35 .682 34.319 0 33.478 0z"/><path fill="#FFF" d="M25.332 22.288L20.543 17.5l4.789-4.788a.76.76 0 0 0 0-1.076l-1.968-1.968a.76.76 0 0 0-1.076 0L17.5 14.457l-4.788-4.789a.76.76 0 0 0-1.076 0l-1.968 1.968a.76.76 0 0 0 0 1.076l4.789 4.788-4.789 4.788a.76.76 0 0 0 0 1.076l1.968 1.968a.76.76 0 0 0 1.076 0l4.788-4.789 4.788 4.789a.76.76 0 0 0 1.076 0l1.968-1.968a.76.76 0 0 0 0-1.076z"/></g></svg>